<?xml version="1.0" encoding="utf-8"?>
<!-- Generator: Adobe Illustrator 28.2.0, SVG Export Plug-In . SVG Version: 6.00 Build 0)  -->
<svg version="1.1" id="レイヤー_1" xmlns="http://www.w3.org/2000/svg" xmlns:xlink="http://www.w3.org/1999/xlink" x="0px"
	 y="0px" viewBox="0 0 256 256" enable-background="new 0 0 256 256" xml:space="preserve">
<path fill="#3B9EA3" d="M224,0H32C14.3269,0,0,14.3268,0,32v192c0,17.6731,14.3269,32,32,32h192c17.6731,0,32-14.3269,32-32V32
	C256,14.3268,241.6731,0,224,0z M88.4854,184.4854C86.1421,186.8281,83.0713,188,80,188s-6.1421-1.1719-8.4854-3.5146
	c-4.686-4.6865-4.686-12.2842,0-16.9707L111.0293,128L71.5146,88.4854c-4.686-4.6865-4.686-12.2842,0-16.9707
	c4.6865-4.6865,12.2842-4.6865,16.9707,0l48,48c4.6865,4.6865,4.6865,12.2842,0,16.9707L88.4854,184.4854z M176,188h-24
	c-6.627,0-12-5.373-12-12s5.373-12,12-12h24c6.627,0,12,5.373,12,12S182.627,188,176,188z"/>
</svg>
